<svg version="1.1" viewBox="0 0 96 96" xmlns="http://www.w3.org/2000/svg" xmlns:xlink="http://www.w3.org/1999/xlink" id="Icons_Music" overflow="hidden"><path d=" M 83.6 11.5 L 30.6 23.9 L 30.6 66.8 C 28 66.2 24.8 66.4 21.7 67.6 C 15.2 70 11.2 75.4 12.8 79.7 C 14.4 84 20.9 85.6 27.4 83.3 C 33.3 81.2 37.1 76.5 36.6 72.5 L 36.6 30.8 L 77.6 21.2 L 77.6 57.7 C 75 57.1 71.8 57.3 68.6 58.5 C 62.1 60.9 58.1 66.3 59.7 70.6 C 61.3 74.9 67.8 76.5 74.3 74.2 C 79.7 72.2 83.3 68.2 83.6 64.4 L 83.6 64.4 L 83.6 11.5 Z"/></svg>