<svg version="1.1" viewBox="0 0 96 96" xmlns="http://www.w3.org/2000/svg" xmlns:xlink="http://www.w3.org/1999/xlink" id="Icons_ClappingHands" overflow="hidden"><path d=" M 47.22 32.48 C 48.5786 33.3514 49.6418 34.6133 50.27 36.1 L 58.06 28.31 L 58.4 28 C 58.1001 26.096 56.3134 24.7957 54.4094 25.0956 C 53.6782 25.2108 53.0025 25.5555 52.48 26.08 L 46.48 32.08 C 46.73 32.21 47 32.33 47.22 32.48 Z"/><path d=" M 20.4 71.46 L 22.08 69.78 L 24.81 67.05 L 23.69 58.29 L 23.69 58.22 C 23.4975 56.5215 23.8289 54.8047 24.64 53.3 L 24.71 53.17 L 24.79 53.05 L 36.31 34.92 C 36.8213 34.1149 37.4754 33.41 38.24 32.84 C 37.589 30.8042 35.4109 29.6816 33.3751 30.3326 C 32.4826 30.6181 31.724 31.2176 31.24 32.02 L 19.74 50.14 C 19.3188 50.934 19.148 51.837 19.25 52.73 L 20.62 63.44 L 16.5 67.56 Z"/><path d=" M 78.47 54.76 C 77.1318 53.3959 74.9412 53.3748 73.577 54.713 C 73.5612 54.7285 73.5455 54.7442 73.53 54.76 L 62.81 65.47 C 62.4976 65.742 62.0324 65.742 61.72 65.47 C 61.4422 65.156 61.4422 64.684 61.72 64.37 L 77.92 48.17 C 79.3007 46.8059 79.3141 44.5807 77.95 43.2 C 76.5859 41.8193 74.3607 41.8059 72.98 43.17 L 56.77 59.43 C 56.4435 59.711 55.951 59.6741 55.67 59.3475 C 55.4183 59.055 55.4183 58.6225 55.67 58.33 L 75.23 38.77 C 76.5941 37.3893 76.5807 35.1641 75.2 33.8 C 73.8193 32.4359 71.5941 32.4493 70.23 33.83 L 50.73 53.38 C 50.4035 53.661 49.911 53.6241 49.63 53.2975 C 49.3783 53.0051 49.3783 52.5725 49.63 52.28 L 65.83 36.08 C 67.1941 34.7159 67.1941 32.5041 65.83 31.14 C 64.4659 29.7759 62.2541 29.7759 60.89 31.14 L 44.69 47.34 L 38.37 53.66 L 46.28 41.24 C 47.3961 39.3978 46.8075 36.9997 44.9654 35.8835 C 43.1737 34.798 40.8444 35.3218 39.69 37.07 L 28.15 55.19 C 27.7288 55.984 27.558 56.887 27.66 57.78 L 29 68.49 L 23.21 74.28 L 39.17 90.21 L 43.59 85.79 C 47.49 81.89 52.16 86.01 59.52 78.65 L 78.47 59.65 C 79.8082 58.2947 79.8082 56.1153 78.47 54.76 Z"/><rect x="53" y="7" width="4" height="10"/><rect x="59.5" y="13.63" width="10" height="4" transform="matrix(0.719219,-0.694784,0.694784,0.719219,7.25,49.2)"/><rect x="43.5" y="10.63" width="4" height="10" transform="matrix(0.694784,-0.719219,0.719219,0.694784,2.65,37.49)"/></svg>